<svg xmlns="http://www.w3.org/2000/svg" width="405.36" height="347.121" viewBox="0 0 405.36 347.121">
  <g id="Group_1" data-name="Group 1" transform="translate(-1107.022 2544.714) rotate(-131)">
    <path id="Path_19" data-name="Path 19" d="M25.357,0H72.521A25.357,25.357,0,0,1,97.878,25.357V72.521A25.357,25.357,0,0,1,72.521,97.878H25.357A25.357,25.357,0,0,1,0,72.521V25.357A25.357,25.357,0,0,1,25.357,0Z" transform="translate(1020.586 2451.878) rotate(180)" fill="#36eee0"/>
    <path id="Path_20" data-name="Path 20" d="M25.357,0H72.521A25.357,25.357,0,0,1,97.878,25.357V72.521A25.357,25.357,0,0,1,72.521,97.878H25.357A25.357,25.357,0,0,1,0,72.521V25.357A25.357,25.357,0,0,1,25.357,0Z" transform="translate(955.664 2733.206) rotate(180)" fill="#f652a0"/>
    <path id="Path_21" data-name="Path 21" d="M25.357,0H72.521A25.357,25.357,0,0,1,97.878,25.357V72.521A25.357,25.357,0,0,1,72.521,97.878H25.357A25.357,25.357,0,0,1,0,72.521V25.357A25.357,25.357,0,0,1,25.357,0Z" transform="translate(907.764 2515.9) rotate(180)" fill="rgba(246,82,160,0.62)"/>
    <path id="Path_22" data-name="Path 22" d="M25.357,0H72.521A25.357,25.357,0,0,1,97.878,25.357V72.521A25.357,25.357,0,0,1,72.521,97.878H25.357A25.357,25.357,0,0,1,0,72.521V25.357A25.357,25.357,0,0,1,25.357,0Z" transform="translate(971.647 2550.563)" fill="rgba(76,82,112,0.69)"/>
    <circle id="Ellipse_8" data-name="Ellipse 8" cx="38.469" cy="38.469" r="38.469" transform="translate(862.025 2529.961)" fill="#36eee0"/>
    <circle id="Ellipse_9" data-name="Ellipse 9" cx="38.469" cy="38.469" r="38.469" transform="translate(933.178 2466.961)" fill="#f652a0"/>
    <path id="Path_23" data-name="Path 23" d="M25.357,0H72.521A25.357,25.357,0,0,1,97.878,25.357V72.521A25.357,25.357,0,0,1,72.521,97.878H25.357A25.357,25.357,0,0,1,0,72.521V25.357A25.357,25.357,0,0,1,25.357,0Z" transform="translate(839.309 2550.563) rotate(90)" fill="#bcece0"/>
  </g>
</svg>
