<svg xmlns="http://www.w3.org/2000/svg" width="541.593" height="625.964" viewBox="0 0 541.593 625.964">
  <g id="Group_2" data-name="Group 2" transform="translate(-744.43 -319)">
    <path id="Path_4" data-name="Path 4" d="M41.857,0h77.855A41.857,41.857,0,0,1,161.57,41.857v77.855a41.857,41.857,0,0,1-41.857,41.857H41.857A41.857,41.857,0,0,1,0,119.712V41.857A41.857,41.857,0,0,1,41.857,0Z" transform="translate(1205.238 480.57) rotate(180)" fill="#36eee0"/>
    <path id="Path_6" data-name="Path 6" d="M41.857,0h77.855A41.857,41.857,0,0,1,161.57,41.857v77.855a41.857,41.857,0,0,1-41.857,41.857H41.857A41.857,41.857,0,0,1,0,119.712V41.857A41.857,41.857,0,0,1,41.857,0Z" transform="translate(1098.07 944.964) rotate(180)" fill="#f652a0"/>
    <path id="Path_11" data-name="Path 11" d="M41.857,0h77.855A41.857,41.857,0,0,1,161.57,41.857v77.855a41.857,41.857,0,0,1-41.857,41.857H41.857A41.857,41.857,0,0,1,0,119.712V41.857A41.857,41.857,0,0,1,41.857,0Z" transform="translate(1019 586.251) rotate(180)" fill="rgba(246,82,160,0.62)"/>
    <path id="Path_12" data-name="Path 12" d="M41.857,0h77.855A41.857,41.857,0,0,1,161.57,41.857v77.855a41.857,41.857,0,0,1-41.857,41.857H41.857A41.857,41.857,0,0,1,0,119.712V41.857A41.857,41.857,0,0,1,41.857,0Z" transform="translate(1124.454 643.47)" fill="rgba(76,82,112,0.69)"/>
    <circle id="Ellipse_6" data-name="Ellipse 6" cx="63.502" cy="63.502" r="63.502" transform="translate(943.498 609.462)" fill="#36eee0"/>
    <circle id="Ellipse_7" data-name="Ellipse 7" cx="63.502" cy="63.502" r="63.502" transform="translate(1060.952 505.467)" fill="#f652a0"/>
    <path id="Path_17" data-name="Path 17" d="M41.857,0h77.855A41.857,41.857,0,0,1,161.57,41.857v77.855a41.857,41.857,0,0,1-41.857,41.857H41.857A41.857,41.857,0,0,1,0,119.712V41.857A41.857,41.857,0,0,1,41.857,0Z" transform="translate(906 643.47) rotate(90)" fill="#bcece0"/>
  </g>
</svg>
